<?xml version="1.0" encoding="UTF-8"?>
<svg width="122px" height="104px" viewBox="0 0 122 104" version="1.1" xmlns="http://www.w3.org/2000/svg" xmlns:xlink="http://www.w3.org/1999/xlink">
    <!-- Generator: Sketch 55 (78076) - https://sketchapp.com -->
    <title>绑定用户</title>
    <desc>Created with Sketch.</desc>
    <g id="Page-1" stroke="none" stroke-width="1" fill="none" fill-rule="evenodd">
        <g id="空白页" transform="translate(-348.000000, -196.000000)">
            <g id="绑定用户" transform="translate(348.000000, 196.000000)">
                <g id="分组-8">
                    <g id="背景/线" fill="#C3CBD6">
                        <g id="-">
                            <g id="编组" transform="translate(14.200000, 9.200000)" fill-rule="nonzero">
                                <path d="M0.8,73.1 C0.3581722,73.1 -5.68434189e-14,72.7418278 -5.68434189e-14,72.3 C-5.68434189e-14,71.8581722 0.3581722,71.5 0.8,71.5 L70.8,71.5 C71.2418278,71.5 71.6,71.8581722 71.6,72.3 C71.6,72.7418278 71.2418278,73.1 70.8,73.1 L0.8,73.1 Z M74.8,73.1 C74.3581722,73.1 74,72.7418278 74,72.3 C74,71.8581722 74.3581722,71.5 74.8,71.5 L77.3,71.5 C77.7418278,71.5 78.1,71.8581722 78.1,72.3 C78.1,72.7418278 77.7418278,73.1 77.3,73.1 L74.8,73.1 Z M83.8,73.1 C83.3581722,73.1 83,72.7418278 83,72.3 C83,71.8581722 83.3581722,71.5 83.8,71.5 L92.8,71.5 C93.2418278,71.5 93.6,71.8581722 93.6,72.3 C93.6,72.7418278 93.2418278,73.1 92.8,73.1 L83.8,73.1 Z M23.8,80.6 C23.3581722,80.6 23,80.2418278 23,79.8 C23,79.3581722 23.3581722,79 23.8,79 L30.8,79 C31.2418278,79 31.6,79.3581722 31.6,79.8 C31.6,80.2418278 31.2418278,80.6 30.8,80.6 L23.8,80.6 Z M35.3,80.6 C34.8581722,80.6 34.5,80.2418278 34.5,79.8 C34.5,79.3581722 34.8581722,79 35.3,79 L65.8,79 C66.2418278,79 66.6,79.3581722 66.6,79.8 C66.6,80.2418278 66.2418278,80.6 65.8,80.6 L35.3,80.6 Z M80,52.8 C80,51.7333333 81.6,51.7333333 81.6,52.8 L81.6,55.8 C81.6,56.2418278 81.2418278,56.6 80.8,56.6 L77.8,56.6 C76.7333333,56.6 76.7333333,55 77.8,55 L80,55 L80,52.8 Z M81.6,58.8 C81.6,59.8666667 80,59.8666667 80,58.8 L80,55.8 C80,55.3581722 80.3581722,55 80.8,55 L83.8,55 C84.8666667,55 84.8666667,56.6 83.8,56.6 L81.6,56.6 L81.6,58.8 Z M4,28.8 C4,27.7333333 5.6,27.7333333 5.6,28.8 L5.6,31.8 C5.6,32.2418278 5.2418278,32.6 4.8,32.6 L1.8,32.6 C0.733333333,32.6 0.733333333,31 1.8,31 L4,31 L4,28.8 Z M78.1,3.5 L80.8,3.5 C81.8666667,3.5 81.8666667,5.1 80.8,5.1 L78.1,5.1 L78.1,7.8 C78.1,8.86666667 76.5,8.86666667 76.5,7.8 L76.5,5.1 L73.8,5.1 C72.7333333,5.1 72.7333333,3.5 73.8,3.5 L76.5,3.5 L76.5,0.8 C76.5,-0.266666667 78.1,-0.266666667 78.1,0.8 L78.1,3.5 Z M5.6,34.8 C5.6,35.8666667 4,35.8666667 4,34.8 L4,31.8 C4,31.3581722 4.3581722,31 4.8,31 L7.8,31 C8.86666667,31 8.86666667,32.6 7.8,32.6 L5.6,32.6 L5.6,34.8 Z" id="Path-2"></path>
                                <path d="M14.0928932,61.1431458 C14.5642977,60.6717412 15.2714045,61.378848 14.8,61.8502525 L13.7393398,62.9109127 C13.5440777,63.1061748 13.2274952,63.1061748 13.032233,62.9109127 L11.9715729,61.8502525 C11.5001684,61.378848 12.2072751,60.6717412 12.6786797,61.1431458 L13.3857864,61.8502525 L14.0928932,61.1431458 Z M12.6786797,63.9715729 C12.2072751,64.4429774 11.5001684,63.7358706 11.9715729,63.2644661 L13.032233,62.2038059 C13.2274952,62.0085438 13.5440777,62.0085438 13.7393398,62.2038059 L14.8,63.2644661 C15.2714045,63.7358706 14.5642977,64.4429774 14.0928932,63.9715729 L13.3857864,63.2644661 L12.6786797,63.9715729 Z M22.9213203,8.8 C23.3927249,8.32859548 24.0998316,9.03570226 23.6284271,9.50710678 L22.567767,10.567767 C22.3725048,10.7630291 22.0559223,10.7630291 21.8606602,10.567767 L20.8,9.50710678 C20.3285955,9.03570226 21.0357023,8.32859548 21.5071068,8.8 L22.2142136,9.50710678 L22.9213203,8.8 Z M21.5071068,11.6284271 C21.0357023,12.0998316 20.3285955,11.3927249 20.8,10.9213203 L21.8606602,9.86066017 C22.0559223,9.66539803 22.3725048,9.66539803 22.567767,9.86066017 L23.6284271,10.9213203 C24.0998316,11.3927249 23.3927249,12.0998316 22.9213203,11.6284271 L22.2142136,10.9213203 L21.5071068,11.6284271 Z" id="Path复制"></path>
                            </g>
                        </g>
                    </g>
                    <g id="Group" transform="translate(42.000000, 22.000000)">
                        <path d="M5.94480294,34.8397638 L9.84882486,33.6915221 L16.5205078,59.2285156 L21.2084961,59.2285156 L28.4398916,33.7764387 L32.0551971,34.8397638 C34.4327011,35.5390297 36.13567,37.6280396 36.3414737,40.097684 L38,60 L0,60 L1.65852634,40.097684 C1.86433003,37.6280396 3.5672989,35.5390297 5.94480294,34.8397638 Z" id="Path" fill="#F5F7F9"></path>
                        <polygon id="Path-Copy" fill="#FFFFFF" points="14 32.5 9.84882486 33.6915221 16.5205078 59.2285156 21.2084961 59.2285156 28.4398916 33.7764387 24 32.5 24 28.6018066 14 28.6018066"></polygon>
                        <path d="M8.5,15 L11,15 L11,22 L8.5,22 C6.56700338,22 5,20.4329966 5,18.5 L5,18.5 C5,16.5670034 6.56700338,15 8.5,15 Z" id="Path-Copy-6" fill="#FFFFFF"></path>
                        <path d="M30.5,15 L33,15 L33,22 L30.5,22 C28.5670034,22 27,20.4329966 27,18.5 L27,18.5 C27,16.5670034 28.5670034,15 30.5,15 Z" id="Path-Copy-5" fill="#FFFFFF" transform="translate(30.000000, 18.500000) scale(-1, 1) translate(-30.000000, -18.500000) "></path>
                        <path d="M6.5,16.5279975 L6.5,7.5672429 C6.5,3.39535595 10.0228985,0.0133733549 14.3686141,0.0133733549 C14.5318618,0.0133733549 14.69507,0.0182504194 14.8580017,0.0279974672 L21.9464115,0.452046779 C22.7909471,0.502569363 23.6385567,0.476989088 24.4781191,0.375641576 L27.3580017,0.0279974672 C29.3759301,-0.215596108 31.2174838,1.15735225 31.4712271,3.09456347 C31.4903903,3.24086527 31.5,3.38817474 31.5,3.53562865 L31.5,16.5279975" id="Rectangle-8" fill="#F5F7F9"></path>
                        <path d="M28.2,13.471857 L21.8415895,9.95690332 C17.1396833,13.6053923 13.1218294,15.0348496 9.8,14.1364999 L9.8,15.8 L8.5,15.8 C7.00883118,15.8 5.8,17.0088312 5.8,18.5 C5.8,19.9911688 7.00883118,21.2 8.5,21.2 L9.8,21.2 L9.8,22.207648 C9.8,25.4947458 11.5781271,28.4696368 14.3920875,30.0518441 L14.8,30.2812013 L14.8,33.0691786 L6.170536,35.6072562 C4.1100325,36.2132867 2.63412614,38.0237619 2.45576294,40.1641204 L0.869439639,59.2 L37.1305604,59.2 L35.5442371,40.1641204 C35.3658739,38.0237619 33.8899675,36.2132867 31.829464,35.6072562 L23.2,33.0691786 L23.2,30.2007449 L23.5994192,29.9696934 C26.4241234,28.3356902 28.2,25.3229796 28.2,22 L28.2,21.2 L29.5,21.2 C30.9911688,21.2 32.2,19.9911688 32.2,18.5 C32.2,17.0088312 30.9911688,15.8 29.5,15.8 L28.2,15.8 L28.2,13.471857 Z" id="Rectangle-7" stroke="#C3CBD6" stroke-width="1.6"></path>
                        <path d="M8.1,14.9279975 L29.9,14.9279975 L29.9,3.53562865 C29.9,3.45767342 29.8949184,3.37977718 29.8847784,3.30236256 C29.746833,2.24921456 28.7102203,1.4763803 27.5497531,1.61646572 L24.6698705,1.96410983 C23.7349856,2.07696417 22.7912224,2.10544629 21.8508656,2.04919142 L14.7624559,1.6251421 C14.6313385,1.61729828 14.4999931,1.61337335 14.3686141,1.61337335 C10.8922716,1.61337335 8.1,4.29395408 8.1,7.5672429 L8.1,14.9279975 Z" id="Rectangle-8-Copy" stroke="#C3CBD7" stroke-width="3.2"></path>
                        <path d="M9.8,14.1364999 C9.8,17.6410166 9.8,18.0176213 9.8,22.207648 C9.8,27.1739869 13.8260131,31.2 18.792352,31.2 L19,31.2 C24.0810197,31.2 28.2,27.0810197 28.2,22 L28.2,13.471857 L21.8415895,9.95690332 C17.1396833,13.6053923 13.1218294,15.0348496 9.8,14.1364999 Z" id="Path-Copy-2" stroke="#C3CBD6" stroke-width="1.6" fill="#FFFFFF"></path>
                        <path d="M10,34 L16,59" id="Path-15-Copy-3" stroke="#C3CBD7" stroke-width="1.6"></path>
                        <path d="M22,34 L28,59" id="Path-15-Copy-4" stroke="#C3CBD7" stroke-width="1.6" transform="translate(25.000000, 46.500000) scale(-1, 1) translate(-25.000000, -46.500000) "></path>
                        <path d="M31,46.5 L31,59" id="Path-15-Copy-5" stroke="#C3CBD7" stroke-width="1.6" stroke-linecap="round" transform="translate(31.000000, 52.750000) scale(-1, 1) translate(-31.000000, -52.750000) "></path>
                        <path d="M8,46.5 L8,59" id="Path-15-Copy-6" stroke="#C3CBD7" stroke-width="1.6" stroke-linecap="round" transform="translate(8.000000, 52.750000) scale(-1, 1) translate(-8.000000, -52.750000) "></path>
                        <path d="M16.0212402,39.9736328 L16.7993641,42.4160981 C16.9315124,42.8309007 17.3168358,43.1125488 17.7521798,43.1125488 L20.3393729,43.1125488 C20.7747169,43.1125488 21.1600403,42.8309007 21.2921887,42.4160981 L22.0703125,39.9736328" id="Path" stroke="#C3CBD7" stroke-width="1.6"></path>
                        <polyline id="Path-Copy-4" stroke="#C3CBD7" stroke-width="1.6" points="15.800293 58.4868164 17.0212402 43.1125488 21.0703125 43.1125488 22.2333984 58.4868164"></polyline>
                        <path d="M14.2609863,33.3266602 L18.7661089,38 L14.1582638,41.3910387 C13.7134494,41.7183896 13.0874858,41.6231668 12.7601348,41.1783524 C12.7009813,41.0979729 12.6541935,41.0091911 12.6213266,40.9149585 L10.420166,34.6040039 L14.2609863,33.3266602 Z M23.8305664,33.2924805 L27.6713867,34.5698242 L25.4434237,40.918383 C25.4105891,41.0119448 25.3640217,41.1001029 25.3052498,41.1799639 C24.9778988,41.6247782 24.3519352,41.7200011 23.9071208,41.3926501 L19.297086,38 L23.8305664,33.2924805 Z" id="Path-15-Copy" stroke="#C3CBD7" stroke-width="1.6"></path>
                        <polyline id="Path-16" stroke="#C3CBD7" stroke-width="1.6" stroke-linecap="round" stroke-linejoin="round" points="18.7451172 20.7851562 18.7451172 24.1982422 20.5151367 24.1982422"></polyline>
                    </g>
                </g>
            </g>
        </g>
    </g>
</svg>